# xmcd
# 
# Track frame offsets:
#     187
#     20027
#     33992
#     52137
#     65027
#     81817
#     99760
#     124500
#     143627
# 
# Disc length: 2236
# 
# Revision: 1
# Processed by: cddbd v1.5.2PL0 Copyright (c) Steve Scherf et al.
# Submitted via: BonkEnc v1.0.8
# 
DISCID=7408ba09
DTITLE=Ray Bryant - Gotta Travel On
DYEAR=1966
DGENRE=Jazz
TTITLE0=Gotta Travel On
TTITLE1=Erewhon
TTITLE2=Smack Dab In The Middle
TTITLE3=Monkey Business
TTITLE4=All Things Are Possible
TTITLE5=It Was a Very Good Year
TTITLE6=Bag's Groove
TTITLE7=MIdnight Stalkin
TTITLE8=Little Soul Sister
EXTD=
EXTT0=
EXTT1=
EXTT2=
EXTT3=
EXTT4=
EXTT5=
EXTT6=
EXTT7=
EXTT8=
PLAYORDER=
